HIERARCHY
ROOT Hips
{
  OFFSET 0.0 0.0 0.0
  CHANNELS 6 XPOSITION YPOSITION ZPOSITION ZROTATION XROTATION YROTATION 
  JOINT LeftUpLeg
  {
    OFFSET 0.08945800000000001 -0.0866707 0.0010165200000000001
    CHANNELS 3 ZROTATION XROTATION YROTATION 
    JOINT LeftLeg
    {
      OFFSET 0.0 -0.444227 0.013727000000000001
      CHANNELS 3 ZROTATION XROTATION YROTATION 
      JOINT LeftFoot
      {
        OFFSET -0.0025354900000000005 -0.42092399999999996 -0.014605900000000002
        CHANNELS 3 ZROTATION XROTATION YROTATION 
        End Site
        {
          OFFSET -0.0004 -0.0441509 0.08499100000000001
        }
      }
    }
  }
  JOINT Spine
  {
    OFFSET 0.0 0.118905 0.0
    CHANNELS 3 ZROTATION XROTATION YROTATION 
    JOINT Spine1
    {
      OFFSET 0.0 0.25657399999999997 0.00127663
      CHANNELS 3 ZROTATION XROTATION YROTATION 
      End Site
      {
        OFFSET -0.0029 0.21508359999999999 0.02525291
      }
      JOINT RightArm
      {
        OFFSET -0.162727 -0.05365632 0.0010212299999999997
        CHANNELS 3 ZROTATION XROTATION YROTATION 
        JOINT RightForeArm
        {
          OFFSET -0.26364 0.00099144 -0.0142434
          CHANNELS 3 ZROTATION XROTATION YROTATION 
          End Site
          {
            OFFSET -0.220324 0.0008536199999999999 0.010221599999999999
          }
        }
      }
      JOINT LeftArm
      {
        OFFSET 0.162727 -0.053656319900000006 0.0010212299999999997
        CHANNELS 3 ZROTATION XROTATION YROTATION 
        JOINT LeftForeArm
        {
          OFFSET 0.26259699999999997 0.00099144 -0.0142434
          CHANNELS 3 ZROTATION XROTATION YROTATION 
          End Site
          {
            OFFSET 0.220902 0.0008536199999999999 0.010221599999999999
          }
        }
      }
    }
  }
  JOINT RightUpLeg
  {
    OFFSET -0.08945800000000001 -0.0866707 0.0010165200000000001
    CHANNELS 3 ZROTATION XROTATION YROTATION 
    JOINT RightLeg
    {
      OFFSET 0.0 -0.444227 0.013727000000000001
      CHANNELS 3 ZROTATION XROTATION YROTATION 
      JOINT RightFoot
      {
        OFFSET 0.0025354900000000005 -0.42092399999999996 -0.014605900000000002
        CHANNELS 3 ZROTATION XROTATION YROTATION 
        End Site
        {
          OFFSET 0.0004 -0.0441509 0.08499100000000001
        }
      }
    }
  }
}
MOTION
Frames: 7
Frame Time: 0.041667
2.16702 0.9932 0.052776699999999996 3.456208481828444 -0.7508605713452201 -100.96716212268677 2.2822184918137274 -11.225808636793232 0.4249642049157177 2.2958801508142224 17.687802799218105 -2.668186078508801 -0.6599142013081203 -12.605258401004749 -1.2444030504986128 -1.6134299537830565 6.155649932866047 -1.443080019962767 0.3248380072732678 1.0033301363608376 -1.6427900555388852 73.64139208378498 -13.81064079421849 -5.4467151437196275 -3.567520074732142 30.211798170798982 30.560902799656674 -73.72348412741935 -30.735922982043665 -3.6032795301317435 -8.15262990654311 58.685900594098335 -6.627049952586463 0.4943330735498217 -14.162101838339836 12.710199988733763 -0.3599549980040652 25.08439735898521 -0.3035269899696082 2.796121284635252 -16.235433081653888 1.2696753907578946 
2.16704 0.9929899999999999 0.0505021 3.290585999409155 -0.9394397998125978 -99.0062626233003 2.0299815267558605 -11.110680675690789 0.10768475578431443 2.2519703587440913 17.487599709361277 -4.373316764706273 -0.26692750134337423 -12.485666911279703 -1.243217372347381 -1.725379955930739 5.801129817770181 -1.4132100018967144 -0.06695819872327295 1.1046601548445023 -1.5356700643514596 73.9199271981381 -14.65391302462119 -6.303825764267596 -3.5253699101469356 30.280800156889036 30.06680008490878 -74.45512716112195 -30.19262241470417 -4.526966565840765 -8.075319849101382 58.34999872090628 -6.8457402300924 0.5715279782710115 -12.021099642050238 10.79060008193742 -0.5788629611093705 23.52960041708019 -0.3159979815791259 1.9008200882299808 -16.152632405893115 1.2411765331677223 
2.16671 0.9935900000000001 0.047888400000000005 3.4240572873013133 -1.1677380190466278 -97.93252273482845 1.9454886716282178 -10.975464274465693 -0.1880833727418907 2.0901700074956593 16.766599817932853 -5.119115792350544 -0.21116711761985948 -12.279598396473126 -1.2380819238651775 -1.2774099396626994 5.453540210247763 -0.9560381199910809 -0.6066710090980196 0.8449900229789574 -0.9190197753500812 74.12032494838627 -14.391555213317245 -6.977091171134092 -3.4065303815608257 30.50440005974774 28.601200290922247 -75.12646645464251 -27.296567565105402 -4.988239122569345 -6.821919945361981 54.13160217252012 -9.117119211693318 0.7117370343359755 -10.270499959661167 7.345599513650145 -1.584529822579146 20.83709715757885 -0.1155700024077892 0.016658414503997892 -16.487637816756607 1.1979598985766418 
2.16683 0.99425 0.0448479 3.7537182885826827 -1.1286167231932047 -97.45627413457096 2.040141860033078 -11.55805892010027 -1.0863770190968476 2.1822900494920905 17.015100882958134 -4.675325958576258 -0.6265549170715433 -12.171799228350107 -1.2316255808305172 -0.14972500368267264 5.4352698811048015 -0.4337490288075441 -1.5406800081076641 0.37284095028608766 -0.1710719995413938 74.70731823584634 -13.316907763459424 -6.869954531360565 -3.4536599674943833 31.199901147457215 26.57410089055272 -75.45679489347184 -21.791889301654933 -4.982397176394868 -5.303879666475382 46.19470037581728 -12.393600230136162 0.9171900317044582 -9.719239660617669 4.934449675308202 -2.261660049298812 19.238499920073828 0.2719099909407663 -0.6863543438329156 -16.591014437392044 1.1791447551256664 
2.16637 0.9933899999999999 0.041301500000000005 3.869710268615132 -0.6253156112631562 -96.81123106935496 2.4726125762487716 -12.756427562810055 -3.057222127688503 2.144519957155566 19.10879804282987 -3.442295813375951 -1.0868491559232245 -12.780560328695003 -1.248370429911038 1.1372600074227384 5.770949773148834 -0.1202810186660997 -2.0491696625685423 0.2188999989980114 0.25719496202378206 75.0951705278655 -12.41092927383413 -6.518308218357983 -3.681830120681475 32.350002550849815 25.116598285827237 -76.14893894320424 -15.690614504771357 -4.898556604332962 -4.279300064554694 37.30790026557867 -15.317998657243189 1.2443298394084468 -9.499210239147587 3.5576299608139634 -2.1501100401043987 18.83490062692319 1.5952199224038621 0.453156691169018 -16.55363793470644 1.213903801255273 
2.16521 0.98981 0.0373054 3.788505722686027 0.30514147593466995 -95.56771316868411 3.5629824812457263 -14.510870080380904 -5.555590066636923 1.1752299895141913 22.70999991479346 -2.059226048904328 -1.4546704240974553 -14.306053197739732 -1.3047948360879251 2.2980999622944767 6.3684999717448 -0.1538739967579116 -1.4615700890979317 0.16867799155687788 0.1571540083438251 74.86935081352655 -11.356039853697865 -6.679971112049368 -3.8116502455754384 32.82479973590866 24.951801189080463 -77.00299945740099 -10.807217932188061 -4.696839346914506 -3.756100317055725 30.342203557527448 -17.503198153878294 2.1376400356706595 -9.291511016676669 2.315509901045427 -1.8647601045068984 19.33430015337243 1.8399899965950242 0.6620000236867658 -17.415076760754083 1.245648172639965 
2.16378 0.9843699999999999 0.0332741 3.7165074179844533 1.2964789740517288 -93.85352693230766 4.661227594355705 -17.329873565952756 -5.75339874830284 0.6674100137570919 28.148599513118644 -3.075175920252116 -2.2911694547210293 -15.048945553005339 -1.3474501145065951 3.4037500676818073 7.223308391655651 -0.5017519930097778 -0.7115510717636513 -0.2555779947790609 -0.2584860011790467 74.57929317004361 -10.01812105473461 -7.126876365858826 -3.578949969421335 32.07440100274521 25.256096361888286 -77.35950801131897 -8.631619120205057 -4.528721497570635 -3.384609956636728 27.768600231097693 -18.6186995264829 3.380080047113128 -9.617669625017703 1.821660116740237 -1.684589959485717 20.974901346725733 0.02157369777470075 -0.5850430550086156 -18.924690293752178 1.225998358728073 
